<svg width="100" height="38" viewBox="0 0 200 38" fill="none" xmlns="http://www.w3.org/2000/svg">
<path d="M33.245 13.3672H25.468C25.326 12.361 25.036 11.4673 24.598 10.6861C24.16 9.89299 23.5978 9.21828 22.9112 8.66193C22.2247 8.10559 21.4316 7.67945 20.532 7.38352C19.6442 7.08759 18.6795 6.93963 17.6378 6.93963C15.7557 6.93963 14.1162 7.4072 12.7195 8.34233C11.3227 9.26562 10.2396 10.6151 9.47017 12.3906C8.70076 14.1544 8.31605 16.2969 8.31605 18.8182C8.31605 21.4105 8.70076 23.5885 9.47017 25.3523C10.2514 27.116 11.3404 28.4477 12.7372 29.3473C14.134 30.2469 15.7498 30.6967 17.5845 30.6967C18.6143 30.6967 19.5672 30.5606 20.4432 30.2884C21.331 30.0161 22.1181 29.6196 22.8047 29.0987C23.4912 28.5661 24.0594 27.9209 24.5092 27.1634C24.9709 26.4058 25.2905 25.5417 25.468 24.571L33.245 24.6065C33.0438 26.2756 32.5407 27.8854 31.7358 29.4361C30.9427 30.9749 29.8714 32.3539 28.522 33.5732C27.1844 34.7805 25.5864 35.7393 23.728 36.4496C21.8814 37.148 19.7921 37.4972 17.4602 37.4972C14.2169 37.4972 11.3168 36.7633 8.75994 35.2955C6.21496 33.8277 4.20265 31.7029 2.72301 28.9212C1.25521 26.1394 0.521307 22.7718 0.521307 18.8182C0.521307 14.8527 1.26705 11.4792 2.75852 8.69744C4.25 5.91572 6.27415 3.79687 8.83097 2.34091C11.3878 0.873105 14.2642 0.139203 17.4602 0.139203C19.5672 0.139203 21.5204 0.435131 23.3196 1.02699C25.1307 1.61884 26.7346 2.48295 28.1314 3.61932C29.5282 4.74384 30.6645 6.12287 31.5405 7.75639C32.4283 9.38991 32.9964 11.2602 33.245 13.3672ZM46.18 21.233V37H38.6161V0.636363H45.967V14.5391H46.2866C46.9021 12.9292 47.8964 11.6686 49.2695 10.7571C50.6426 9.83381 52.3649 9.37216 54.4364 9.37216C56.3304 9.37216 57.9817 9.78646 59.3903 10.6151C60.8107 11.4318 61.9116 12.6096 62.6928 14.1484C63.4859 15.6754 63.8765 17.5043 63.8647 19.6349V37H56.3008V20.9844C56.3126 19.3035 55.8865 17.9955 55.0224 17.0604C54.1701 16.1252 52.9746 15.6577 51.4357 15.6577C50.4059 15.6577 49.4944 15.8767 48.7013 16.3146C47.9201 16.7526 47.3046 17.3918 46.8548 18.2322C46.4168 19.0608 46.1919 20.0611 46.18 21.233ZM77.5943 37.5149C75.8542 37.5149 74.3036 37.2131 72.9423 36.6094C71.581 35.9938 70.5038 35.0883 69.7108 33.8928C68.9295 32.6854 68.5389 31.1821 68.5389 29.3828C68.5389 27.8677 68.8171 26.5952 69.3734 25.5653C69.9297 24.5355 70.6873 23.7069 71.6461 23.0795C72.6049 22.4522 73.694 21.9787 74.9132 21.6591C76.1442 21.3395 77.4345 21.1146 78.7839 20.9844C80.3701 20.8187 81.6485 20.6648 82.6191 20.5227C83.5898 20.3688 84.2941 20.1439 84.7321 19.848C85.17 19.5521 85.389 19.1141 85.389 18.5341V18.4276C85.389 17.303 85.0339 16.433 84.3237 15.8175C83.6253 15.2019 82.631 14.8942 81.3407 14.8942C79.9795 14.8942 78.8964 15.196 78.0914 15.7997C77.2865 16.3916 76.7538 17.1373 76.4934 18.0369L69.4977 17.4688C69.8528 15.8116 70.5512 14.3793 71.5929 13.1719C72.6345 11.9527 73.978 11.0175 75.6234 10.3665C77.2806 9.7036 79.1982 9.37216 81.3762 9.37216C82.8914 9.37216 84.3414 9.54972 85.7264 9.90483C87.1232 10.2599 88.3601 10.8104 89.4373 11.5561C90.5263 12.3018 91.3845 13.2607 92.0119 14.4325C92.6393 15.5926 92.9529 16.9834 92.9529 18.6051V37H85.7797V33.218H85.5666C85.1286 34.0703 84.5427 34.822 83.8088 35.473C83.0749 36.1122 82.193 36.6153 81.1632 36.9822C80.1333 37.3374 78.9437 37.5149 77.5943 37.5149ZM79.7605 32.2947C80.8732 32.2947 81.8556 32.0758 82.7079 31.6378C83.5602 31.188 84.229 30.5843 84.7143 29.8267C85.1996 29.0691 85.4423 28.2109 85.4423 27.2521V24.358C85.2056 24.5118 84.88 24.6539 84.4657 24.7841C84.0633 24.9025 83.6075 25.0149 83.0985 25.1214C82.5895 25.2161 82.0806 25.3049 81.5716 25.3878C81.0626 25.4588 80.6009 25.5239 80.1866 25.5831C79.2988 25.7133 78.5235 25.9205 77.8606 26.2045C77.1977 26.4886 76.6828 26.8733 76.3159 27.3587C75.9489 27.8321 75.7654 28.424 75.7654 29.1342C75.7654 30.1641 76.1383 30.9512 76.8841 31.4957C77.6416 32.0284 78.6004 32.2947 79.7605 32.2947ZM98.8212 37V9.72727H106.03V14.5391H106.35C106.918 12.9411 107.865 11.6804 109.191 10.7571C110.516 9.83381 112.102 9.37216 113.949 9.37216C115.819 9.37216 117.411 9.83973 118.725 10.7749C120.039 11.6982 120.915 12.9529 121.353 14.5391H121.637C122.194 12.9766 123.2 11.7277 124.656 10.7926C126.124 9.84564 127.858 9.37216 129.858 9.37216C132.403 9.37216 134.469 10.183 136.055 11.8047C137.653 13.4145 138.452 15.6991 138.452 18.6584V37H130.906V20.1499C130.906 18.6347 130.503 17.4983 129.698 16.7408C128.893 15.9832 127.887 15.6044 126.68 15.6044C125.307 15.6044 124.235 16.0424 123.466 16.9183C122.697 17.7824 122.312 18.9247 122.312 20.3452V37H114.979V19.9901C114.979 18.6525 114.594 17.5871 113.825 16.794C113.067 16.0009 112.067 15.6044 110.824 15.6044C109.984 15.6044 109.226 15.8175 108.551 16.2436C107.888 16.6579 107.362 17.2438 106.971 18.0014C106.58 18.7472 106.385 19.6231 106.385 20.6293V37H98.8212ZM144.569 37V0.636363H152.133V14.3082H152.363C152.695 13.5743 153.174 12.8286 153.802 12.071C154.441 11.3016 155.269 10.6624 156.287 10.1534C157.317 9.63258 158.596 9.37216 160.123 9.37216C162.111 9.37216 163.946 9.89299 165.627 10.9347C167.308 11.9645 168.651 13.5211 169.657 15.6044C170.664 17.6759 171.167 20.2741 171.167 23.3991C171.167 26.4413 170.675 29.0099 169.693 31.1051C168.722 33.1884 167.397 34.7687 165.716 35.8459C164.047 36.9112 162.176 37.4439 160.105 37.4439C158.637 37.4439 157.388 37.2012 156.358 36.7159C155.34 36.2306 154.506 35.621 153.855 34.8871C153.204 34.1413 152.707 33.3897 152.363 32.6321H152.026V37H144.569ZM151.973 23.3636C151.973 24.9853 152.198 26.3999 152.648 27.6072C153.097 28.8146 153.748 29.7557 154.601 30.4304C155.453 31.0933 156.489 31.4247 157.708 31.4247C158.939 31.4247 159.981 31.0874 160.833 30.4126C161.685 29.7261 162.33 28.7791 162.768 27.5717C163.218 26.3525 163.443 24.9498 163.443 23.3636C163.443 21.7893 163.224 20.4044 162.786 19.2088C162.348 18.0133 161.703 17.0781 160.851 16.4034C159.998 15.7287 158.951 15.3913 157.708 15.3913C156.477 15.3913 155.435 15.7169 154.583 16.3679C153.742 17.0189 153.097 17.9422 152.648 19.1378C152.198 20.3333 151.973 21.742 151.973 23.3636ZM183.991 37.5149C182.251 37.5149 180.7 37.2131 179.339 36.6094C177.978 35.9938 176.9 35.0883 176.107 33.8928C175.326 32.6854 174.935 31.1821 174.935 29.3828C174.935 27.8677 175.214 26.5952 175.77 25.5653C176.326 24.5355 177.084 23.7069 178.043 23.0795C179.001 22.4522 180.09 21.9787 181.31 21.6591C182.541 21.3395 183.831 21.1146 185.18 20.9844C186.767 20.8187 188.045 20.6648 189.016 20.5227C189.986 20.3688 190.691 20.1439 191.129 19.848C191.567 19.5521 191.786 19.1141 191.786 18.5341V18.4276C191.786 17.303 191.43 16.433 190.72 15.8175C190.022 15.2019 189.027 14.8942 187.737 14.8942C186.376 14.8942 185.293 15.196 184.488 15.7997C183.683 16.3916 183.15 17.1373 182.89 18.0369L175.894 17.4688C176.249 15.8116 176.948 14.3793 177.989 13.1719C179.031 11.9527 180.375 11.0175 182.02 10.3665C183.677 9.7036 185.595 9.37216 187.773 9.37216C189.288 9.37216 190.738 9.54972 192.123 9.90483C193.52 10.2599 194.757 10.8104 195.834 11.5561C196.923 12.3018 197.781 13.2607 198.408 14.4325C199.036 15.5926 199.349 16.9834 199.349 18.6051V37H192.176V33.218H191.963C191.525 34.0703 190.939 34.822 190.205 35.473C189.471 36.1122 188.589 36.6153 187.56 36.9822C186.53 37.3374 185.34 37.5149 183.991 37.5149ZM186.157 32.2947C187.27 32.2947 188.252 32.0758 189.104 31.6378C189.957 31.188 190.625 30.5843 191.111 29.8267C191.596 29.0691 191.839 28.2109 191.839 27.2521V24.358C191.602 24.5118 191.277 24.6539 190.862 24.7841C190.46 24.9025 190.004 25.0149 189.495 25.1214C188.986 25.2161 188.477 25.3049 187.968 25.3878C187.459 25.4588 186.997 25.5239 186.583 25.5831C185.695 25.7133 184.92 25.9205 184.257 26.2045C183.594 26.4886 183.079 26.8733 182.712 27.3587C182.345 27.8321 182.162 28.424 182.162 29.1342C182.162 30.1641 182.535 30.9512 183.281 31.4957C184.038 32.0284 184.997 32.2947 186.157 32.2947Z" fill="white"/>
</svg>
