<svg width="100" height="38" viewBox="0 0 200 38" fill="none" xmlns="http://www.w3.org/2000/svg">
<path d="M33.2466 13.3672H25.4696C25.3276 12.361 25.0376 11.4673 24.5996 10.6861C24.1616 9.89299 23.5994 9.21828 22.9128 8.66193C22.2263 8.10559 21.4332 7.67945 20.5335 7.38352C19.6458 7.08759 18.681 6.93963 17.6394 6.93963C15.7573 6.93963 14.1178 7.4072 12.721 8.34233C11.3243 9.26562 10.2412 10.6151 9.47176 12.3906C8.70234 14.1544 8.31764 16.2969 8.31764 18.8182C8.31764 21.4105 8.70234 23.5885 9.47176 25.3523C10.253 27.116 11.342 28.4477 12.7388 29.3473C14.1356 30.2469 15.7514 30.6967 17.5861 30.6967C18.6159 30.6967 19.5688 30.5606 20.4448 30.2884C21.3326 30.0161 22.1197 29.6196 22.8063 29.0987C23.4928 28.5661 24.061 27.9209 24.5108 27.1634C24.9725 26.4058 25.2921 25.5417 25.4696 24.571L33.2466 24.6065C33.0454 26.2756 32.5423 27.8854 31.7374 29.4361C30.9443 30.9749 29.873 32.3539 28.5236 33.5732C27.186 34.7805 25.588 35.7393 23.7296 36.4496C21.883 37.148 19.7937 37.4972 17.4618 37.4972C14.2184 37.4972 11.3183 36.7633 8.76153 35.2955C6.21655 33.8277 4.20424 31.7029 2.7246 28.9212C1.2568 26.1394 0.522894 22.7718 0.522894 18.8182C0.522894 14.8527 1.26863 11.4792 2.76011 8.69744C4.25159 5.91572 6.27574 3.79687 8.83255 2.34091C11.3894 0.873105 14.2658 0.139203 17.4618 0.139203C19.5688 0.139203 21.5219 0.435131 23.3212 1.02699C25.1323 1.61884 26.7362 2.48295 28.133 3.61932C29.5298 4.74384 30.6661 6.12287 31.5421 7.75639C32.4299 9.38991 32.998 11.2602 33.2466 13.3672ZM46.1816 21.233V37H38.6177V0.636363H45.9686V14.5391H46.2882C46.9037 12.9292 47.898 11.6686 49.2711 10.7571C50.6442 9.83381 52.3665 9.37216 54.438 9.37216C56.332 9.37216 57.9832 9.78646 59.3919 10.6151C60.8123 11.4318 61.9132 12.6096 62.6944 14.1484C63.4875 15.6754 63.8781 17.5043 63.8663 19.6349V37H56.3024V20.9844C56.3142 19.3035 55.8881 17.9955 55.024 17.0604C54.1717 16.1252 52.9761 15.6577 51.4373 15.6577C50.4075 15.6577 49.496 15.8767 48.7029 16.3146C47.9217 16.7526 47.3062 17.3918 46.8563 18.2322C46.4184 19.0608 46.1935 20.0611 46.1816 21.233ZM77.5959 37.5149C75.8558 37.5149 74.3052 37.2131 72.9439 36.6094C71.5826 35.9938 70.5054 35.0883 69.7123 33.8928C68.9311 32.6854 68.5405 31.1821 68.5405 29.3828C68.5405 27.8677 68.8186 26.5952 69.375 25.5653C69.9313 24.5355 70.6889 23.7069 71.6477 23.0795C72.6065 22.4522 73.6955 21.9787 74.9148 21.6591C76.1458 21.3395 77.4361 21.1146 78.7855 20.9844C80.3717 20.8187 81.6501 20.6648 82.6207 20.5227C83.5914 20.3688 84.2957 20.1439 84.7337 19.848C85.1716 19.5521 85.3906 19.1141 85.3906 18.5341V18.4276C85.3906 17.303 85.0355 16.433 84.3253 15.8175C83.6269 15.2019 82.6326 14.8942 81.3423 14.8942C79.981 14.8942 78.898 15.196 78.093 15.7997C77.2881 16.3916 76.7554 17.1373 76.495 18.0369L69.4993 17.4688C69.8544 15.8116 70.5528 14.3793 71.5944 13.1719C72.6361 11.9527 73.9796 11.0175 75.625 10.3665C77.2822 9.7036 79.1998 9.37216 81.3778 9.37216C82.893 9.37216 84.343 9.54972 85.728 9.90483C87.1248 10.2599 88.3617 10.8104 89.4389 11.5561C90.5279 12.3018 91.3861 13.2607 92.0135 14.4325C92.6409 15.5926 92.9545 16.9834 92.9545 18.6051V37H85.7812V33.218H85.5682C85.1302 34.0703 84.5443 34.822 83.8104 35.473C83.0765 36.1122 82.1946 36.6153 81.1648 36.9822C80.1349 37.3374 78.9453 37.5149 77.5959 37.5149ZM79.7621 32.2947C80.8748 32.2947 81.8572 32.0758 82.7095 31.6378C83.5618 31.188 84.2306 30.5843 84.7159 29.8267C85.2012 29.0691 85.4439 28.2109 85.4439 27.2521V24.358C85.2071 24.5118 84.8816 24.6539 84.4673 24.7841C84.0649 24.9025 83.6091 25.0149 83.1001 25.1214C82.5911 25.2161 82.0821 25.3049 81.5731 25.3878C81.0641 25.4588 80.6025 25.5239 80.1882 25.5831C79.3004 25.7133 78.5251 25.9205 77.8622 26.2045C77.1993 26.4886 76.6844 26.8733 76.3175 27.3587C75.9505 27.8321 75.767 28.424 75.767 29.1342C75.767 30.1641 76.1399 30.9512 76.8856 31.4957C77.6432 32.0284 78.602 32.2947 79.7621 32.2947ZM98.8228 37V9.72727H106.032V14.5391H106.351C106.919 12.9411 107.866 11.6804 109.192 10.7571C110.518 9.83381 112.104 9.37216 113.951 9.37216C115.821 9.37216 117.413 9.83973 118.727 10.7749C120.041 11.6982 120.917 12.9529 121.355 14.5391H121.639C122.195 12.9766 123.201 11.7277 124.657 10.7926C126.125 9.84564 127.859 9.37216 129.86 9.37216C132.405 9.37216 134.47 10.183 136.056 11.8047C137.654 13.4145 138.453 15.6991 138.453 18.6584V37H130.907V20.1499C130.907 18.6347 130.505 17.4983 129.7 16.7408C128.895 15.9832 127.889 15.6044 126.681 15.6044C125.308 15.6044 124.237 16.0424 123.468 16.9183C122.698 17.7824 122.314 18.9247 122.314 20.3452V37H114.98V19.9901C114.98 18.6525 114.596 17.5871 113.826 16.794C113.069 16.0009 112.069 15.6044 110.826 15.6044C109.985 15.6044 109.228 15.8175 108.553 16.2436C107.89 16.6579 107.363 17.2438 106.973 18.0014C106.582 18.7472 106.387 19.6231 106.387 20.6293V37H98.8228ZM144.57 37V0.636363H152.134V14.3082H152.365C152.696 13.5743 153.176 12.8286 153.803 12.071C154.442 11.3016 155.271 10.6624 156.289 10.1534C157.319 9.63258 158.597 9.37216 160.124 9.37216C162.113 9.37216 163.948 9.89299 165.629 10.9347C167.309 11.9645 168.653 13.5211 169.659 15.6044C170.665 17.6759 171.168 20.2741 171.168 23.3991C171.168 26.4413 170.677 29.0099 169.695 31.1051C168.724 33.1884 167.398 34.7687 165.717 35.8459C164.048 36.9112 162.178 37.4439 160.107 37.4439C158.639 37.4439 157.39 37.2012 156.36 36.7159C155.342 36.2306 154.508 35.621 153.857 34.8871C153.205 34.1413 152.708 33.3897 152.365 32.6321H152.028V37H144.57ZM151.974 23.3636C151.974 24.9853 152.199 26.3999 152.649 27.6072C153.099 28.8146 153.75 29.7557 154.602 30.4304C155.455 31.0933 156.49 31.4247 157.71 31.4247C158.941 31.4247 159.982 31.0874 160.835 30.4126C161.687 29.7261 162.332 28.7791 162.77 27.5717C163.22 26.3525 163.445 24.9498 163.445 23.3636C163.445 21.7893 163.226 20.4044 162.788 19.2088C162.35 18.0133 161.705 17.0781 160.852 16.4034C160 15.7287 158.952 15.3913 157.71 15.3913C156.478 15.3913 155.437 15.7169 154.585 16.3679C153.744 17.0189 153.099 17.9422 152.649 19.1378C152.199 20.3333 151.974 21.742 151.974 23.3636ZM183.992 37.5149C182.252 37.5149 180.702 37.2131 179.34 36.6094C177.979 35.9938 176.902 35.0883 176.109 33.8928C175.328 32.6854 174.937 31.1821 174.937 29.3828C174.937 27.8677 175.215 26.5952 175.771 25.5653C176.328 24.5355 177.085 23.7069 178.044 23.0795C179.003 22.4522 180.092 21.9787 181.311 21.6591C182.542 21.3395 183.833 21.1146 185.182 20.9844C186.768 20.8187 188.047 20.6648 189.017 20.5227C189.988 20.3688 190.692 20.1439 191.13 19.848C191.568 19.5521 191.787 19.1141 191.787 18.5341V18.4276C191.787 17.303 191.432 16.433 190.722 15.8175C190.023 15.2019 189.029 14.8942 187.739 14.8942C186.378 14.8942 185.294 15.196 184.49 15.7997C183.685 16.3916 183.152 17.1373 182.892 18.0369L175.896 17.4688C176.251 15.8116 176.949 14.3793 177.991 13.1719C179.033 11.9527 180.376 11.0175 182.021 10.3665C183.679 9.7036 185.596 9.37216 187.774 9.37216C189.289 9.37216 190.74 9.54972 192.124 9.90483C193.521 10.2599 194.758 10.8104 195.835 11.5561C196.924 12.3018 197.783 13.2607 198.41 14.4325C199.037 15.5926 199.351 16.9834 199.351 18.6051V37H192.178V33.218H191.965C191.527 34.0703 190.941 34.822 190.207 35.473C189.473 36.1122 188.591 36.6153 187.561 36.9822C186.531 37.3374 185.342 37.5149 183.992 37.5149ZM186.159 32.2947C187.271 32.2947 188.254 32.0758 189.106 31.6378C189.958 31.188 190.627 30.5843 191.112 29.8267C191.598 29.0691 191.84 28.2109 191.84 27.2521V24.358C191.604 24.5118 191.278 24.6539 190.864 24.7841C190.461 24.9025 190.006 25.0149 189.497 25.1214C188.988 25.2161 188.479 25.3049 187.97 25.3878C187.461 25.4588 186.999 25.5239 186.585 25.5831C185.697 25.7133 184.922 25.9205 184.259 26.2045C183.596 26.4886 183.081 26.8733 182.714 27.3587C182.347 27.8321 182.164 28.424 182.164 29.1342C182.164 30.1641 182.536 30.9512 183.282 31.4957C184.04 32.0284 184.999 32.2947 186.159 32.2947Z" fill="black"/>
</svg>
