<svg width="99" height="89" viewBox="0 0 99 89" fill="none" xmlns="http://www.w3.org/2000/svg">
<rect width="99" height="89" rx="20" fill="white"/>
<path d="M70.1136 37.75H60.1591C59.9773 36.4621 59.6061 35.3182 59.0455 34.3182C58.4849 33.303 57.7652 32.4394 56.8864 31.7273C56.0076 31.0151 54.9924 30.4697 53.8409 30.0909C52.7045 29.7121 51.4697 29.5227 50.1364 29.5227C47.7273 29.5227 45.6288 30.1212 43.8409 31.3182C42.053 32.5 40.6667 34.2273 39.6818 36.5C38.697 38.7576 38.2045 41.5 38.2045 44.7273C38.2045 48.0455 38.697 50.8333 39.6818 53.0909C40.6818 55.3485 42.0758 57.053 43.8636 58.2045C45.6515 59.3561 47.7197 59.9318 50.0682 59.9318C51.3864 59.9318 52.6061 59.7576 53.7273 59.4091C54.8636 59.0606 55.8712 58.553 56.75 57.8864C57.6288 57.2045 58.3561 56.3788 58.9318 55.4091C59.5227 54.4394 59.9318 53.3333 60.1591 52.0909L70.1136 52.1364C69.8561 54.2727 69.2121 56.3333 68.1818 58.3182C67.1667 60.2879 65.7955 62.053 64.0682 63.6136C62.3561 65.1591 60.3106 66.3864 57.9318 67.2955C55.5682 68.1894 52.8939 68.6364 49.9091 68.6364C45.7576 68.6364 42.0455 67.697 38.7727 65.8182C35.5152 63.9394 32.9394 61.2197 31.0455 57.6591C29.1667 54.0985 28.2273 49.7879 28.2273 44.7273C28.2273 39.6515 29.1818 35.3333 31.0909 31.7727C33 28.2121 35.5909 25.5 38.8636 23.6364C42.1364 21.7576 45.8182 20.8182 49.9091 20.8182C52.6061 20.8182 55.1061 21.197 57.4091 21.9545C59.7273 22.7121 61.7803 23.8182 63.5682 25.2727C65.3561 26.7121 66.8106 28.4773 67.9318 30.5682C69.0682 32.6591 69.7955 35.053 70.1136 37.75Z" fill="black"/>
</svg>
